<?xml version="1.0" encoding="UTF-8"?>
<svg width="17px" height="16px" viewBox="0 0 17 16" version="1.1" xmlns="http://www.w3.org/2000/svg" xmlns:xlink="http://www.w3.org/1999/xlink">
    <title>Shape</title>
    <g id="Page-1" stroke="none" stroke-width="1" fill="none" fill-rule="evenodd">
        <path d="M16.853922,12.0091128 L16.853922,6.8800836 C16.853922,6.75762149 16.8405864,6.63536002 16.8144518,6.51503814 L15.9159878,2.3792831 C15.7730521,1.72162608 15.2554945,1.17312154 14.5434217,0.924451876 C14.4353577,0.886730066 11.8578397,0 8.50003832,0 C5.14223693,0 2.56471893,0.886730066 2.45665493,0.924451876 C1.74442887,1.17312154 1.22687128,1.72162608 1.08401221,2.3792831 L0.185701469,6.51503814 C0.159490201,6.63536002 0.146461208,6.75762149 0.146461208,6.8800836 L0.146461208,12.0087783 C0.0554881815,12.0999394 0,12.218723 0,12.3491441 L0,13.4906302 C0,13.7771554 0.266174661,14.0095057 0.594581923,14.0095057 L1.75155649,14.0095057 L1.75155649,15.1948668 C1.75155649,15.6395694 2.16465221,16 2.67423911,16 L3.98020405,16 C4.48979095,16 4.90288667,15.6395694 4.90288667,15.1948668 L4.90288667,14.0095057 L12.09719,14.0095057 L12.09719,15.1948668 C12.09719,15.6395694 12.510209,16 13.019796,16 L14.3257609,16 C14.8353478,16 15.2483669,15.6395694 15.2483669,15.1948668 L15.2483669,14.0095057 L16.4054181,14.0095057 C16.7337487,14.0095057 17,13.7771554 17,13.4906302 L17,12.3491441 C17,12.2189236 16.9446651,12.1002069 16.853922,12.0091128 Z M6.62379675,1 L9.37628641,1 C9.72090896,1 10,1.22382984 10,1.5 C10,1.77617016 9.72090896,2 9.37628641,2 L6.62379675,2 C6.27925737,2 6,1.77617016 6,1.5 C6,1.22382984 6.27934053,1 6.62379675,1 Z M4.49995972,12 C3.67159009,12 3,11.5522733 3,11.0000269 C3,10.4477267 3.67159009,10 4.49995972,10 C5.32840991,10 6,10.4477267 6,11.0000269 C6,11.5522733 5.32840991,12 4.49995972,12 Z M9.37628641,13 L6.62379675,13 C6.27925737,13 6,12.7761851 6,12.5000333 C6,12.2238149 6.27925737,12 6.62379675,12 L9.37628641,12 C9.72090896,12 10,12.2238149 10,12.5000333 C10,12.7761184 9.7208258,13 9.37628641,13 Z M12.4998792,12 C11.671429,12 11,11.5522733 11,11.0000269 C11,10.4477267 11.671429,10 12.4998792,10 C13.3283293,10 14,10.4477267 14,11.0000269 C14,11.5522733 13.3283293,12 12.4998792,12 Z M2,7 L2.90085389,3 C6.30023469,3 9.69984021,3 13.0992959,3 L14,7 C9.8450764,7 6.1549236,7 2,7 Z" id="Shape" fill="#FF2424" fill-rule="nonzero"></path>
    </g>
</svg>