<?xml version="1.0" encoding="UTF-8"?>
<svg width="40px" height="40px" viewBox="0 0 40 40" version="1.1" xmlns="http://www.w3.org/2000/svg" xmlns:xlink="http://www.w3.org/1999/xlink">
    <title>Group 3</title>
    <g id="Page-1" stroke="none" stroke-width="1" fill="none" fill-rule="evenodd">
        <g id="Group-3" fill="#FFFFFF" fill-rule="nonzero">
            <g id="layer-svgrepo-com" transform="translate(5.000000, 4.000000)">
                <path d="M17.6140777,0.72558481 L29.0761618,7.98076859 C29.9036577,8.50455081 30.1272638,9.56607431 29.5755999,10.3517477 C29.4437222,10.5395662 29.2739781,10.7007311 29.0761618,10.8259435 L17.6140777,18.0811273 C16.1019011,19.0382935 14.1318739,19.0382935 12.6196972,18.0811273 L1.1576132,10.8259435 C0.330117146,10.3021612 0.106511112,9.24063775 0.658175151,8.45496439 C0.790052788,8.26714585 0.959796748,8.10598095 1.1576132,7.98076859 L12.6196972,0.72558481 C14.1318739,-0.23158147 16.1019011,-0.23158147 17.6140777,0.72558481 Z M29.5690306,15.7155782 C29.3018123,16.1215185 28.9478008,16.4696652 28.5299064,16.7374873 L17.6355636,23.7195042 C16.113585,24.694917 14.1201899,24.694917 12.5982114,23.7195042 L1.70386848,16.7374873 C0.333518996,15.8592513 -0.197883082,14.2425229 0.300845459,12.8228307 L12.6196972,20.6185139 C14.037363,21.5158574 15.8574362,21.5719412 17.3254027,20.7867659 L17.6140777,20.6185139 L29.9317654,12.8219688 C30.2589667,13.7557594 30.1612837,14.8158663 29.5690306,15.7155782 Z M29.5690306,21.2722245 C29.3018123,21.6781648 28.9478008,22.0263115 28.5299064,22.2941336 L17.6355636,29.2761505 C16.113585,30.2515633 14.1201899,30.2515633 12.5982114,29.2761505 L1.70386848,22.2941336 C0.333518996,21.4158976 -0.197883082,19.7991692 0.300845459,18.379477 L12.6196972,26.1751602 C14.037363,27.0725037 15.8574362,27.1285875 17.3254027,26.3434122 L17.6140777,26.1751602 L29.9317654,18.3786151 C30.2589667,19.3124057 30.1612837,20.3725126 29.5690306,21.2722245 Z" id="🎨-Color"></path>
            </g>
            <g id="public-transportation-svgrepo-com">
                <path d="M31.6964051,40 L8.30379747,40 C3.72506329,40 0,36.2745316 0,31.6952911 L0,8.30359494 C0,3.72496203 3.72506329,0 8.30379747,0 L31.6964051,0 C36.275038,0 40,3.72496203 40,8.30359494 L40,31.6952911 C40,36.2745316 36.275038,40 31.6964051,40 Z M8.30379747,1.51898734 C4.56263291,1.51898734 1.51898734,4.56253165 1.51898734,8.30359494 L1.51898734,31.6952911 C1.51898734,35.436962 4.56263291,38.4810127 8.30379747,38.4810127 L31.6964051,38.4810127 C35.4373671,38.4810127 38.4810127,35.436962 38.4810127,31.6952911 L38.4810127,8.30359494 C38.4810127,4.56253165 35.4373671,1.51898734 31.6964051,1.51898734 L8.30379747,1.51898734 Z" id="Shape"></path>
            </g>
        </g>
    </g>
</svg>