<?xml version="1.0" encoding="UTF-8"?>
<svg width="40px" height="40px" viewBox="0 0 40 40" version="1.1" xmlns="http://www.w3.org/2000/svg" xmlns:xlink="http://www.w3.org/1999/xlink">
    <title>Group 5</title>
    <g id="Page-1" stroke="none" stroke-width="1" fill="none" fill-rule="evenodd">
        <g id="Group-5" fill="#FFFFFF" fill-rule="nonzero">
            <g id="public-transportation-svgrepo-com">
                <path d="M31.6964051,40 L8.30379747,40 C3.72506329,40 0,36.2745316 0,31.6952911 L0,8.30359494 C0,3.72496203 3.72506329,0 8.30379747,0 L31.6964051,0 C36.275038,0 40,3.72496203 40,8.30359494 L40,31.6952911 C40,36.2745316 36.275038,40 31.6964051,40 Z M8.30379747,1.51898734 C4.56263291,1.51898734 1.51898734,4.56253165 1.51898734,8.30359494 L1.51898734,31.6952911 C1.51898734,35.436962 4.56263291,38.4810127 8.30379747,38.4810127 L31.6964051,38.4810127 C35.4373671,38.4810127 38.4810127,35.436962 38.4810127,31.6952911 L38.4810127,8.30359494 C38.4810127,4.56253165 35.4373671,1.51898734 31.6964051,1.51898734 L8.30379747,1.51898734 Z" id="Shape"></path>
            </g>
            <g id="plus-svgrepo-com-2" transform="translate(5.000000, 19.000000)">
                <polygon id="Path" points="30 0.010989011 15.989011 0.010989011 14.010989 0.010989011 0 0.010989011 0 1.98901099 14.010989 1.98901099 15.989011 1.98901099 30 1.98901099"></polygon>
            </g>
        </g>
    </g>
</svg>