<?xml version="1.0" encoding="UTF-8"?>
<svg width="17px" height="19px" viewBox="0 0 17 19" version="1.1" xmlns="http://www.w3.org/2000/svg" xmlns:xlink="http://www.w3.org/1999/xlink">
    <title>Shape</title>
    <g id="Page-1" stroke="none" stroke-width="1" fill="none" fill-rule="evenodd">
        <path d="M16.7017975,13.6370886 L16.7017975,7.81275949 C16.7017975,7.6736962 16.6885823,7.53486076 16.6626835,7.39822785 L15.7723291,2.70182278 C15.6306835,1.95501266 15.1177975,1.3321519 14.4121519,1.04977215 C14.3050633,1.00693671 11.7508101,0 8.42331646,0 C5.09582278,0 2.54156962,1.00693671 2.43448101,1.04977215 C1.72868354,1.3321519 1.21579747,1.95501266 1.07422785,2.70182278 L0.184025316,7.39822785 C0.158050633,7.53486076 0.145139241,7.6736962 0.145139241,7.81275949 L0.145139241,13.6367089 C0.0549873418,13.7402278 2.84217094e-14,13.8751139 2.84217094e-14,14.0232152 L2.84217094e-14,15.319443 C2.84217094e-14,15.6448101 0.263772152,15.9086582 0.58921519,15.9086582 L1.73574684,15.9086582 L1.73574684,17.2547089 C1.73574684,17.7596962 2.14511392,18.1689873 2.65010127,18.1689873 L3.94427848,18.1689873 C4.44926582,18.1689873 4.85863291,17.7596962 4.85863291,17.2547089 L4.85863291,15.9086582 L11.988,15.9086582 L11.988,17.2547089 C11.988,17.7596962 12.3972911,18.1689873 12.9022785,18.1689873 L14.1964557,18.1689873 C14.701443,18.1689873 15.1107342,17.7596962 15.1107342,17.2547089 L15.1107342,15.9086582 L16.2573418,15.9086582 C16.5827089,15.9086582 16.846557,15.6448101 16.846557,15.319443 L16.846557,14.0232152 C16.846557,13.8753418 16.7917215,13.7405316 16.7017975,13.6370886 Z M7.16643038,1.18731646 L9.68020253,1.18731646 C9.99493671,1.18731646 10.2498228,1.44227848 10.2498228,1.75686076 C10.2498228,2.07144304 9.99493671,2.32640506 9.68020253,2.32640506 L7.16643038,2.32640506 C6.85177215,2.32640506 6.59673418,2.07144304 6.59673418,1.75686076 C6.59673418,1.44227848 6.8518481,1.18731646 7.16643038,1.18731646 Z M4.03450633,13.4005823 C3.25359494,13.4005823 2.62048101,12.7674684 2.62048101,11.986557 C2.62048101,11.2055696 3.25359494,10.5724557 4.03450633,10.5724557 C4.81549367,10.5724557 5.44860759,11.2055696 5.44860759,11.986557 C5.44860759,12.7674684 4.81549367,13.4005823 4.03450633,13.4005823 Z M9.68020253,14.8070886 L7.16643038,14.8070886 C6.85177215,14.8070886 6.59673418,14.5521266 6.59673418,14.2375443 C6.59673418,13.9228861 6.85177215,13.6679241 7.16643038,13.6679241 L9.68020253,13.6679241 C9.99493671,13.6679241 10.2498228,13.9228861 10.2498228,14.2375443 C10.2498228,14.5520506 9.99486076,14.8070886 9.68020253,14.8070886 Z M12.8120506,13.4005823 C12.0310633,13.4005823 11.3981013,12.7674684 11.3981013,11.986557 C11.3981013,11.2055696 12.0310633,10.5724557 12.8120506,10.5724557 C13.593038,10.5724557 14.2262278,11.2055696 14.2262278,11.986557 C14.2262278,12.7674684 13.593038,13.4005823 12.8120506,13.4005823 Z M2.33946835,7.66750211 L3.25291139,3.0718481 C6.69979747,3.0718481 10.1469114,3.0718481 13.5938734,3.0718481 L14.5071646,7.66750211 C10.2941772,7.66750211 6.5524557,7.66750211 2.33946835,7.66750211 Z" id="Shape" fill="#056C40" fill-rule="nonzero"></path>
    </g>
</svg>