<?xml version="1.0" encoding="UTF-8"?>
<svg width="30px" height="30px" viewBox="0 0 30 30" version="1.1" xmlns="http://www.w3.org/2000/svg" xmlns:xlink="http://www.w3.org/1999/xlink">
    <title>location-svgrepo-com</title>
    <g id="Page-1" stroke="none" stroke-width="1" fill="none" fill-rule="evenodd">
        <g id="location-svgrepo-com" fill="#FFFFFF" fill-rule="nonzero">
            <path d="M29.7135652,0.286565217 C29.4401739,0.013173913 29.0314565,-0.0735 28.6707391,0.0652173913 L0.627130435,10.8506087 C0.260347826,10.9916739 0.0135,11.3385652 0.000586956522,11.7313696 C-0.0123913043,12.1241739 0.210913043,12.486587 0.567586957,12.651587 L12.0412826,17.958913 L17.3486087,29.4326087 C17.5090435,29.7794348 17.8561304,30.0001957 18.2363478,30.0001957 C18.2471087,30.0001957 18.258,30.0001957 18.2688261,29.9996739 C18.6616304,29.9866957 19.0085217,29.739913 19.149587,29.3731304 L29.934913,1.32945652 C30.0736957,0.968608696 29.9869565,0.559891304 29.7135652,0.286565217 Z M18.1535217,26.5123696 L13.6661087,16.8112174 C13.6173913,16.7058913 13.5507391,16.611 13.4699348,16.5301957 L27.3187174,2.68147826 L18.1535217,26.5123696 Z" id="Shape"></path>
        </g>
    </g>
</svg>